<svg width="176" height="144" viewBox="0 0 176 144" fill="none" xmlns="http://www.w3.org/2000/svg">
<path d="M88 9.74868C77.165 0.440976 61.457 -0.94364 47.157 0.484933C30.503 2.16625 13.695 7.86955 3.223 12.6278C2.26214 13.0644 1.44733 13.7679 0.875831 14.6545C0.304334 15.5411 0.000292286 16.5733 0 17.6278L0 138.507C0.000254782 139.426 0.231409 140.331 0.672288 141.138C1.11317 141.945 1.74968 142.628 2.52352 143.126C3.29736 143.623 4.18379 143.919 5.10162 143.986C6.01944 144.052 6.93932 143.888 7.777 143.507C17.479 139.111 33.11 133.826 48.257 132.298C63.756 130.738 76.747 133.254 83.71 141.936C84.2254 142.577 84.8784 143.095 85.6209 143.451C86.3634 143.807 87.1765 143.992 88 143.992C88.8235 143.992 89.6366 143.807 90.3791 143.451C91.1216 143.095 91.7746 142.577 92.29 141.936C99.253 133.254 112.244 130.738 127.732 132.298C142.89 133.826 158.532 139.111 168.223 143.507C169.061 143.888 169.981 144.052 170.898 143.986C171.816 143.919 172.703 143.623 173.476 143.126C174.25 142.628 174.887 141.945 175.328 141.138C175.769 140.331 176 139.426 176 138.507V17.6278C176 16.5733 175.696 15.5411 175.124 14.6545C174.553 13.7679 173.738 13.0644 172.777 12.6278C162.305 7.86955 145.497 2.16625 128.843 0.484933C114.543 -0.954629 98.835 0.440976 88 9.74868Z" fill="#FFE7E0"/>
</svg>
